<svg 
 xmlns="http://www.w3.org/2000/svg"
 xmlns:xlink="http://www.w3.org/1999/xlink"
 width="373px" height="387px">
<path fill-rule="evenodd"  stroke-width="2px" stroke="rgb(0, 0, 0)" fill="rgb(0, 0, 0)"
 d="M362.000,223.000 C361.000,235.500 357.000,382.000 193.000,382.000 C14.000,382.000 11.000,234.667 11.000,222.000 C11.000,209.000 -1.000,18.000 10.000,7.000 C21.000,-4.000 85.679,59.679 98.000,72.000 C109.642,83.642 261.857,83.571 274.000,72.000 C287.906,58.748 349.000,-6.000 362.000,7.000 C375.000,20.000 363.000,210.500 362.000,223.000 ZM353.000,23.000 C346.617,16.647 294.000,75.000 282.000,82.000 C275.511,85.785 237.068,90.939 185.982,90.935 C142.821,90.932 95.511,85.674 90.000,82.000 C80.513,75.675 24.000,16.000 18.000,22.000 C12.000,28.000 18.833,196.667 23.000,231.000 C26.000,265.333 45.000,371.000 192.000,371.000 C339.000,371.000 348.990,237.927 350.000,231.000 C353.500,207.000 359.270,29.240 353.000,23.000 ZM331.000,112.000 C326.500,114.500 298.500,100.000 298.000,94.000 C297.500,88.000 327.000,58.000 335.000,58.000 C343.000,58.000 335.500,109.500 331.000,112.000 ZM304.000,210.000 C304.000,214.000 300.000,217.000 300.000,217.000 L252.000,230.000 C252.000,230.000 247.000,230.000 247.000,226.000 C247.000,222.000 251.000,220.000 251.000,220.000 L298.000,206.000 C298.000,206.000 304.000,206.000 304.000,210.000 ZM254.000,251.000 L302.000,269.000 C302.000,269.000 306.000,271.000 303.000,276.000 C300.926,279.457 298.000,278.000 298.000,278.000 L250.000,260.000 C250.000,260.000 243.795,256.661 247.000,252.000 C249.750,248.000 254.000,251.000 254.000,251.000 ZM186.000,270.000 C175.500,269.500 159.500,238.000 166.000,231.000 C171.500,224.500 199.761,223.742 206.000,231.000 C211.835,237.788 194.000,270.000 186.000,270.000 ZM122.000,231.000 L76.000,217.000 C76.000,217.000 71.500,215.000 73.000,210.000 C74.500,205.000 79.000,207.000 79.000,207.000 L126.000,220.000 C126.000,220.000 131.000,224.000 130.000,227.000 C129.000,230.000 122.000,231.000 122.000,231.000 ZM41.000,111.000 C37.500,107.500 31.500,60.500 37.000,58.000 C42.500,55.500 74.000,87.000 74.000,93.000 C74.000,99.000 44.500,114.500 41.000,111.000 ZM77.000,268.000 L123.000,250.000 C123.000,250.000 128.750,247.500 130.000,253.000 C130.893,256.931 125.000,260.000 125.000,260.000 L79.000,278.000 C79.000,278.000 74.000,276.500 74.000,273.000 C74.000,269.500 77.000,268.000 77.000,268.000 Z"/>
</svg>