<svg 
 xmlns="http://www.w3.org/2000/svg"
 xmlns:xlink="http://www.w3.org/1999/xlink"
 width="381px" height="377px">
<path fill-rule="evenodd"  fill="rgb(0, 0, 0)"
 d="M378.000,218.000 C377.000,230.500 353.000,377.000 189.000,377.000 C30.000,377.000 5.500,250.000 5.000,228.000 C5.000,215.000 -6.000,13.000 5.000,2.000 C16.000,-9.000 78.000,55.000 94.000,65.000 C110.000,75.000 271.000,79.000 286.000,67.000 C301.000,55.000 360.000,-9.000 373.000,4.000 C386.000,17.000 379.000,205.500 378.000,218.000 ZM363.000,21.000 C354.000,12.000 299.000,73.000 287.000,80.000 C280.512,83.785 232.783,87.939 181.982,86.935 C138.830,86.083 91.512,80.674 86.000,77.000 C76.513,70.675 20.000,13.000 14.000,19.000 C8.000,25.000 15.500,210.000 15.000,222.000 C14.000,242.000 41.000,366.000 188.000,366.000 C335.000,366.000 363.990,232.927 365.000,226.000 C368.500,202.000 372.000,30.000 363.000,21.000 ZM338.000,106.000 C333.500,108.500 306.500,99.000 306.000,93.000 C305.500,87.000 337.000,54.000 345.000,54.000 C353.000,54.000 342.500,103.500 338.000,106.000 ZM302.000,215.000 L254.000,225.000 C254.000,225.000 249.000,225.000 249.000,221.000 C249.000,217.000 253.000,215.000 253.000,215.000 L300.000,204.000 C300.000,204.000 306.000,204.000 306.000,208.000 C306.000,212.000 302.000,215.000 302.000,215.000 ZM250.000,247.000 L301.000,266.000 C301.000,266.000 304.000,269.500 302.000,273.000 C300.000,276.500 297.000,275.000 297.000,275.000 L249.000,257.000 C249.000,257.000 243.000,253.000 247.000,249.000 C251.000,245.000 250.000,247.000 250.000,247.000 ZM188.000,265.000 C177.500,264.500 161.000,233.500 170.000,227.000 C179.000,220.500 188.000,232.000 188.000,232.000 C188.000,232.000 188.500,226.500 200.000,226.000 C218.000,227.000 196.000,265.000 188.000,265.000 ZM118.000,226.000 L72.000,212.000 C72.000,212.000 67.500,210.000 69.000,205.000 C70.500,200.000 75.000,202.000 75.000,202.000 L122.000,215.000 C122.000,215.000 127.000,219.000 126.000,222.000 C125.000,225.000 118.000,226.000 118.000,226.000 ZM35.000,106.000 C31.500,102.500 25.500,55.500 31.000,53.000 C36.500,50.500 68.000,82.000 68.000,88.000 C68.000,94.000 38.500,109.500 35.000,106.000 ZM73.000,263.000 L119.000,245.000 C119.000,245.000 126.500,244.000 126.000,248.000 C125.500,252.000 123.000,257.000 123.000,257.000 L75.000,273.000 C75.000,273.000 70.000,271.500 70.000,268.000 C70.000,264.500 73.000,263.000 73.000,263.000 Z"/>
</svg>