<?xml version="1.0" standalone="no"?>
<!DOCTYPE svg PUBLIC "-//W3C//DTD SVG 20010904//EN"
 "http://www.w3.org/TR/2001/REC-SVG-20010904/DTD/svg10.dtd">
<svg version="1.0" xmlns="http://www.w3.org/2000/svg"
 width="426.000000pt" height="426.000000pt" viewBox="0 0 426.000000 426.000000"
 preserveAspectRatio="xMidYMid meet">
<metadata>
Created by potrace 1.11, written by Peter Selinger 2001-2013
</metadata>
<g transform="translate(0.000000,426.000000) scale(0.100000,-0.100000)"
fill="#000000" stroke="none">
<path d="M375 4090 c-59 -23 -70 -121 -70 -620 1 -313 6 -534 20 -855 6 -141
16 -362 20 -435 2 -41 7 -145 10 -230 6 -172 24 -307 56 -432 11 -46 22 -90
24 -98 8 -39 80 -213 120 -288 260 -488 725 -769 1375 -830 154 -14 567 -6
622 13 7 2 29 6 48 9 270 42 545 162 738 323 214 178 379 429 475 723 21 63
65 246 72 300 3 25 8 56 10 70 5 34 15 149 20 240 3 41 7 111 10 155 7 110 18
347 32 650 15 361 8 1057 -12 1166 -21 111 -35 136 -79 145 -51 9 -125 -19
-220 -84 -44 -30 -83 -58 -86 -61 -3 -4 -30 -26 -60 -50 -62 -48 -239 -212
-403 -374 -131 -128 -137 -131 -337 -153 -30 -3 -71 -7 -90 -10 -196 -22 -903
-22 -1097 1 -21 2 -59 7 -85 10 -196 22 -201 25 -355 175 -71 69 -157 150
-192 180 -35 30 -71 62 -80 71 -35 35 -180 149 -245 193 -121 82 -198 113
-241 96z"/>
</g>
</svg>
